<?xml version="1.0" encoding="utf-8"?>
<!-- Generator: Adobe Illustrator 22.1.0, SVG Export Plug-In . SVG Version: 6.00 Build 0)  -->
<svg version="1.1" id="Layer_1" xmlns="http://www.w3.org/2000/svg" xmlns:xlink="http://www.w3.org/1999/xlink" x="0px" y="0px"
	 viewBox="0 0 32 32" style="enable-background:new 0 0 32 32;" xml:space="preserve">
<style type="text/css">
	.st0{fill:#FF0000;}
</style>
<path class="st0" d="M32,3.8c-1.2,0.6-2.4,1.1-3.8,1.2c1.4-1,2.4-2.6,2.9-4.4c-1.3,1-2.7,1.6-4.2,2C25.8,1,24,0,22.2,0
	c-3.6,0-6.6,3.6-6.6,8.1c0,0.6,0.1,1.2,0.2,1.8C10.3,9.6,5.5,6.4,2.2,1.5C1.6,2.7,1.3,4,1.3,5.5c0,2.8,1.2,5.3,2.9,6.7
	c-1.1,0-2.1-0.4-3-1v0.1c0,3.9,2.3,7.1,5.3,7.8c-0.6,0.1-1.1,0.2-1.7,0.2c-0.4,0-0.8,0-1.2-0.1c0.8,3.2,3.3,5.5,6.1,5.6
	c-2.2,2.2-5.1,3.4-8.2,3.4c-0.5,0-1.1,0-1.6-0.1C2.8,30.7,6.3,32,10,32c12.1,0,18.7-12.3,18.7-22.9c0-0.4,0-0.7,0-1
	C30,6.9,31.1,5.4,32,3.8z"/>
</svg>
